<?xml version="1.0" encoding="UTF-8" ?>
<!DOCTYPE svg PUBLIC "-//W3C//DTD SVG 1.1//EN" "http://www.w3.org/Graphics/SVG/1.1/DTD/svg11.dtd">
<svg width="342pt" height="358pt" viewBox="0 0 342 358" version="1.1" xmlns="http://www.w3.org/2000/svg">
<g id="#121313ff">
</g>
<g id="#e1e2e7ff">
<path fill="#e1e2e7" opacity="1.00" d=" M 173.61 66.02 C 175.26 57.80 183.76 52.05 191.94 52.51 C 206.58 52.59 221.22 52.47 235.86 52.55 C 235.67 59.02 233.40 65.14 231.88 71.36 C 226.67 92.00 220.54 112.38 215.55 133.07 C 210.88 149.59 206.55 166.20 202.35 182.84 C 197.59 199.13 193.64 215.65 189.52 232.12 C 186.07 244.09 174.61 253.54 162.00 253.59 C 126.67 253.64 91.34 253.63 56.01 253.63 C 48.84 253.73 41.55 250.28 37.66 244.15 C 33.51 238.15 33.62 230.31 34.88 223.41 C 42.80 195.16 50.48 166.83 58.10 138.49 C 59.87 132.14 60.84 125.26 65.06 119.95 C 70.06 113.00 78.48 109.00 86.93 108.61 C 112.01 108.65 137.10 108.68 162.18 108.52 C 165.48 94.22 169.99 80.24 173.61 66.02 Z" />
<path fill="#e1e2e7" opacity="1.00" d=" M 248.62 109.26 C 252.01 108.39 255.54 108.69 259.00 108.65 C 270.68 108.67 282.35 108.54 294.03 108.65 C 295.70 108.54 297.28 109.09 298.90 109.45 C 297.37 117.79 294.66 125.84 292.45 134.01 C 291.49 138.25 287.44 141.61 283.06 141.46 C 265.42 141.48 247.79 141.55 230.15 141.49 C 230.65 135.42 232.88 129.68 234.30 123.79 C 235.83 116.78 241.45 110.61 248.62 109.26 Z" />
<path fill="#e1e2e7" opacity="1.00" d=" M 285.21 155.64 C 285.27 156.91 285.67 158.19 285.27 159.44 C 273.85 201.78 262.04 244.02 251.15 286.50 C 246.16 305.22 228.42 319.67 209.05 320.54 C 184.09 320.58 159.13 320.65 134.16 320.49 C 134.68 314.70 136.75 309.23 138.08 303.62 C 140.51 293.58 143.58 283.70 145.77 273.60 C 157.15 273.01 168.56 273.72 179.94 273.28 C 184.58 272.49 189.60 271.51 193.03 268.00 C 197.49 263.74 198.44 257.37 200.17 251.74 C 208.03 221.08 216.34 190.55 224.51 159.97 C 225.00 158.23 225.89 156.02 228.13 156.41 C 245.11 156.04 262.10 156.33 279.08 156.22 C 281.13 156.15 283.16 155.80 285.21 155.64 Z" />
</g>
</svg>
