<?xml version="1.0" encoding="UTF-8" ?>
<!DOCTYPE svg PUBLIC "-//W3C//DTD SVG 1.1//EN" "http://www.w3.org/Graphics/SVG/1.1/DTD/svg11.dtd">
<svg width="736pt" height="678pt" viewBox="0 0 736 678" version="1.1" xmlns="http://www.w3.org/2000/svg">
<g id="#f3f3f3ff">
</g>
<g id="#f5c14eff">
<path fill="#f5c14e" opacity="1.00" d=" M 358.57 58.03 C 397.45 54.86 437.03 58.94 474.14 71.13 C 546.65 94.28 608.83 147.35 643.59 215.00 C 664.39 255.31 675.90 300.58 675.85 345.99 C 676.68 387.85 667.85 429.81 650.80 468.02 C 621.30 534.57 565.93 589.09 498.95 617.60 C 461.53 633.60 420.73 641.70 380.03 640.88 C 333.04 640.65 286.26 628.29 244.97 605.94 C 213.62 588.85 185.28 566.12 162.13 538.91 C 134.33 506.61 113.79 468.11 102.47 427.03 C 84.28 361.32 89.78 289.20 118.45 227.27 C 142.99 173.51 184.38 127.66 235.25 97.60 C 272.65 75.27 315.20 61.84 358.57 58.03 M 363.07 97.92 C 362.48 114.26 363.47 130.61 362.94 146.95 C 362.87 240.64 362.96 334.34 362.92 428.03 C 362.97 485.38 362.79 542.74 363.07 600.07 C 413.91 604.21 465.96 592.85 510.05 567.10 C 538.49 550.68 563.60 528.57 583.65 502.57 C 605.34 474.45 621.00 441.69 629.12 407.11 C 638.97 365.38 638.00 321.14 626.27 279.90 C 617.07 247.54 601.25 217.08 580.09 190.93 C 557.30 162.68 528.40 139.37 495.85 123.28 C 455.02 102.79 408.54 94.36 363.07 97.92 M 224.05 154.36 C 192.45 180.49 167.10 214.25 151.41 252.18 C 125.11 314.72 125.78 387.99 153.21 450.04 C 169.07 486.38 193.77 518.75 224.41 543.88 C 252.24 566.67 284.99 583.63 319.87 592.53 C 319.87 430.18 319.83 267.85 319.90 105.51 C 284.83 114.33 252.03 131.52 224.05 154.36 Z" />
<path fill="#f5c14e" opacity="1.00" d=" M 375.44 114.96 C 380.89 115.18 385.77 110.88 391.22 112.75 C 394.45 113.36 396.94 115.97 397.97 119.01 C 399.98 125.18 399.31 131.83 401.14 138.03 C 402.20 141.65 402.96 145.34 403.69 149.04 C 401.50 145.78 399.28 142.24 395.73 140.31 C 389.86 137.16 382.90 137.05 377.01 133.97 C 373.50 132.16 371.25 127.61 372.88 123.83 C 374.01 120.96 375.35 118.11 375.44 114.96 Z" />
<path fill="#f5c14e" opacity="1.00" d=" M 553.03 197.96 C 555.44 193.24 561.85 191.66 566.52 193.76 C 569.13 194.89 571.94 195.31 574.78 195.39 C 574.70 199.19 577.10 202.32 577.89 205.91 C 578.66 209.89 575.68 213.49 572.23 215.03 C 566.61 217.59 560.19 217.86 554.69 220.74 C 551.23 222.52 549.17 225.96 546.96 228.99 C 547.52 222.91 550.05 217.22 550.50 211.13 C 551.06 206.71 550.97 202.03 553.03 197.96 Z" />
<path fill="#f5c14e" opacity="1.00" d=" M 395.42 258.52 C 398.04 255.22 401.46 252.70 405.05 250.56 C 401.22 259.51 400.52 269.34 399.60 278.92 C 397.34 300.53 397.97 322.32 396.69 343.98 C 394.76 346.81 394.32 350.21 395.82 353.38 C 391.76 353.83 387.68 353.90 383.61 353.64 C 385.44 349.00 382.52 344.61 382.71 339.95 C 382.42 324.94 382.62 309.91 383.53 294.92 C 384.56 282.15 386.98 268.65 395.42 258.52 Z" />
<path fill="#f5c14e" opacity="1.00" d=" M 522.46 266.52 C 530.60 262.36 540.02 262.63 548.86 263.61 C 560.74 264.91 571.00 271.75 580.59 278.38 C 586.94 282.66 592.05 289.17 599.67 291.25 C 599.98 288.61 599.99 285.14 603.05 284.15 C 608.27 282.71 611.30 289.73 608.64 293.60 C 606.31 297.49 601.10 298.06 597.10 296.87 C 588.29 294.56 583.69 285.17 575.34 282.17 C 575.76 285.87 577.43 289.25 579.45 292.32 C 574.00 290.71 569.12 287.41 566.29 282.38 C 565.47 284.45 564.87 286.70 563.41 288.44 C 561.50 290.38 558.72 290.91 556.23 291.69 C 558.08 287.95 561.33 283.47 558.78 279.29 C 557.13 275.59 553.33 273.79 549.78 272.39 C 551.47 276.43 552.92 281.32 550.52 285.39 C 548.48 288.87 544.40 290.01 540.76 291.01 C 543.07 286.95 545.23 281.78 542.74 277.31 C 540.21 273.59 535.81 271.15 531.32 270.95 C 531.25 274.00 531.66 277.40 529.63 279.96 C 528.47 278.91 527.47 277.69 526.23 276.74 C 521.54 275.15 515.73 278.93 515.59 283.97 C 515.61 287.38 517.94 290.42 520.84 292.02 C 523.03 289.97 524.79 287.01 528.07 286.62 C 530.68 285.78 533.20 287.01 535.49 288.17 C 533.28 289.68 530.38 290.62 529.02 293.08 C 527.75 296.16 529.85 299.16 531.18 301.82 C 533.24 299.54 535.33 297.14 538.25 295.94 C 538.80 297.64 539.18 299.41 539.99 301.02 C 541.74 303.05 544.44 304.07 547.06 304.38 C 560.74 305.69 574.20 300.62 587.88 302.48 C 593.21 303.83 598.50 306.90 601.10 311.93 C 603.27 315.84 603.35 320.69 601.84 324.84 C 600.15 329.19 596.34 332.15 592.86 335.05 C 595.58 338.80 598.49 342.51 600.10 346.91 C 602.25 352.00 601.93 357.64 601.69 363.04 C 601.10 377.23 591.49 389.59 592.45 403.99 C 592.72 410.15 596.06 417.18 602.96 417.74 C 602.36 424.74 592.43 425.88 592.61 433.07 C 592.42 438.43 596.97 442.14 598.30 447.05 C 594.70 447.44 591.18 446.54 588.17 444.55 C 586.90 445.56 585.80 447.14 584.04 447.22 C 581.63 447.44 579.74 445.74 577.85 444.56 C 575.97 445.62 574.17 447.00 571.98 447.30 C 570.14 447.20 569.01 445.62 567.76 444.51 C 565.70 445.64 563.61 446.72 561.44 447.61 C 561.62 441.88 567.06 438.45 572.12 437.38 C 575.06 436.36 579.58 436.39 580.52 432.70 C 581.26 428.51 580.54 424.21 580.10 420.03 C 579.87 416.66 577.88 413.70 575.20 411.76 C 568.17 406.42 559.94 402.67 553.69 396.31 C 549.71 392.20 545.40 387.87 539.59 386.60 C 533.45 385.41 527.09 385.49 520.90 386.20 C 506.88 388.62 494.85 396.89 481.38 400.99 C 484.14 395.63 486.88 390.20 488.44 384.34 C 489.94 380.05 490.68 375.42 489.53 370.96 C 488.80 374.79 488.48 378.69 488.03 382.57 C 485.56 392.21 480.50 400.91 475.21 409.25 C 473.68 411.93 471.67 415.43 473.55 418.43 C 475.87 421.27 479.93 421.09 483.22 421.75 C 480.80 427.80 474.43 430.06 468.75 431.95 C 468.60 436.45 471.08 441.72 467.68 445.56 C 465.36 448.99 460.79 446.30 457.86 445.11 C 455.98 445.98 454.12 447.14 452.00 447.28 C 449.85 447.38 448.11 445.97 446.35 444.97 C 444.35 446.01 442.31 447.52 439.94 447.22 C 438.49 446.82 437.31 445.88 436.08 445.10 C 434.17 446.09 432.14 446.84 430.01 447.24 C 431.07 443.49 432.30 438.96 436.14 437.18 C 441.74 435.84 448.47 438.44 453.19 434.16 C 457.51 430.91 457.02 424.90 455.91 420.22 C 453.96 412.77 450.87 405.63 449.52 398.02 C 448.62 392.64 449.61 387.23 450.44 381.91 C 446.83 389.27 448.69 397.73 449.87 405.44 C 439.25 401.40 429.41 394.11 424.32 383.74 C 420.65 376.46 420.31 367.76 422.93 360.08 C 425.94 349.70 433.74 341.33 442.90 335.92 C 445.97 334.21 448.58 331.83 450.63 328.97 C 449.79 327.77 449.37 326.17 448.06 325.39 C 444.99 324.94 443.67 328.22 442.02 330.13 C 440.31 327.55 438.67 324.94 436.87 322.43 C 436.28 324.02 435.71 325.61 435.15 327.21 C 433.79 325.81 432.48 324.36 431.17 322.92 C 428.81 323.79 426.41 324.53 423.99 325.21 C 424.70 323.54 425.41 321.88 426.12 320.22 C 422.50 320.94 418.86 321.52 415.19 321.88 C 416.40 317.99 417.11 313.80 419.60 310.47 C 426.17 313.17 433.23 314.27 440.28 314.69 C 439.58 315.92 438.89 317.16 438.19 318.40 C 442.71 318.31 447.19 318.92 451.68 319.38 C 450.88 311.02 443.16 306.05 439.67 298.91 C 439.02 300.59 438.40 302.28 437.77 303.98 C 435.79 302.57 433.88 301.07 431.98 299.57 C 431.91 301.12 431.83 302.66 431.76 304.22 C 428.84 302.21 426.45 299.60 424.12 296.97 C 421.40 293.90 417.88 291.16 416.80 287.01 C 415.98 284.16 414.90 280.99 416.09 278.10 C 417.73 274.13 424.39 274.04 426.23 277.84 C 426.79 279.46 426.51 281.22 426.66 282.91 C 433.29 282.59 439.53 280.08 446.16 279.71 C 449.46 279.47 451.51 276.60 453.30 274.15 C 452.89 272.95 452.50 271.76 452.12 270.56 C 455.31 270.31 458.56 269.77 461.76 270.32 C 464.41 271.20 466.46 273.22 468.99 274.37 C 472.11 273.53 471.10 269.61 471.69 267.20 C 476.77 267.63 480.65 270.97 483.99 274.51 C 485.18 272.12 486.36 269.72 487.49 267.30 C 491.49 268.63 494.83 271.19 498.12 273.73 C 502.16 275.86 506.04 272.52 508.64 269.71 C 507.93 274.96 505.10 279.51 501.35 283.15 C 505.27 287.57 505.60 293.60 505.27 299.21 C 503.29 297.13 501.29 295.05 499.29 292.99 C 499.26 293.44 499.20 294.35 499.18 294.80 C 501.11 296.55 503.13 298.20 505.25 299.73 C 505.17 303.91 504.91 308.08 504.52 312.25 C 501.40 309.49 497.09 307.19 496.30 302.72 C 495.71 299.30 494.22 296.14 491.54 293.87 C 491.86 296.41 492.32 298.93 492.76 301.46 C 493.13 299.82 493.48 298.19 493.81 296.55 C 494.59 299.39 495.02 302.33 496.03 305.11 C 497.15 308.10 500.30 309.53 502.16 311.98 C 503.06 315.70 503.78 319.48 505.16 323.07 C 499.73 320.07 494.58 316.38 490.89 311.33 C 490.06 312.94 489.22 314.55 488.38 316.17 C 486.48 314.61 484.68 312.94 482.96 311.19 C 482.79 313.30 482.57 315.40 482.16 317.48 C 480.10 315.93 478.13 314.27 476.07 312.75 C 477.93 315.01 479.89 317.19 481.65 319.53 C 482.66 317.76 483.69 316.02 484.74 314.28 C 486.13 315.48 487.54 316.67 488.95 317.86 C 489.55 316.29 490.13 314.71 490.71 313.13 C 493.36 316.56 497.38 318.55 500.16 321.80 C 501.14 325.19 501.80 328.71 503.79 331.72 C 497.90 331.90 492.18 328.92 488.95 324.00 C 488.45 325.34 487.95 326.67 487.46 328.02 C 483.97 326.10 481.18 323.28 478.27 320.64 C 477.94 321.21 477.28 322.36 476.95 322.93 C 475.18 320.17 472.93 317.76 470.34 315.76 C 469.61 317.64 468.88 319.53 468.13 321.42 C 465.75 319.46 463.69 317.18 461.60 314.94 C 462.58 318.16 464.89 320.73 467.53 322.74 C 469.48 321.90 470.30 319.61 471.72 318.13 C 473.67 320.43 475.33 322.96 476.72 325.64 C 477.31 324.97 478.50 323.62 479.10 322.95 C 482.27 325.34 482.94 329.19 482.32 332.94 C 479.11 330.57 475.91 328.19 472.47 326.16 C 472.08 328.23 471.71 330.30 471.38 332.39 C 469.84 329.82 468.06 327.41 466.04 325.21 C 464.37 327.23 462.67 329.22 460.99 331.23 C 459.98 329.61 461.08 325.17 458.58 325.20 C 457.38 326.89 456.60 328.82 455.60 330.63 C 454.62 328.50 453.72 326.35 452.62 324.29 C 452.86 327.19 453.37 330.08 454.27 332.86 C 456.03 331.13 457.71 329.33 459.39 327.52 C 459.43 329.46 459.41 331.40 459.34 333.34 C 462.33 332.00 464.39 329.41 466.22 326.80 C 468.20 329.49 469.81 332.41 471.27 335.41 C 472.35 333.20 473.20 330.88 473.87 328.52 C 477.27 330.27 480.21 332.76 482.34 335.96 C 483.26 333.02 483.50 329.94 483.47 326.87 C 485.00 327.84 486.52 328.86 488.13 329.71 C 488.51 328.91 489.28 327.31 489.66 326.51 C 493.96 331.78 501.39 331.40 506.36 335.55 C 507.14 336.59 507.97 337.61 508.77 338.65 C 506.00 338.86 503.22 338.80 500.46 338.70 C 500.36 341.12 500.24 343.52 500.12 345.94 C 496.32 345.67 492.76 344.32 489.43 342.54 C 487.53 344.79 485.47 347.01 482.73 348.26 C 480.96 343.81 479.04 339.40 477.96 334.72 C 474.97 337.09 474.67 341.13 473.49 344.49 C 470.98 343.19 469.62 340.72 468.49 338.26 C 467.03 340.75 466.66 345.30 463.47 345.89 C 462.44 343.78 461.78 341.53 460.97 339.34 C 460.22 343.40 458.27 347.37 454.11 348.80 C 453.36 345.92 452.75 343.01 452.28 340.07 C 450.17 341.07 448.03 342.03 445.91 342.99 C 447.04 339.90 448.21 336.82 449.36 333.73 C 446.96 336.94 445.84 340.93 443.24 344.02 C 445.97 343.52 448.65 342.79 451.37 342.24 C 452.28 345.03 452.87 347.93 452.84 350.88 C 456.34 348.89 459.84 346.57 461.36 342.63 C 461.65 344.85 462.01 347.10 462.48 349.31 C 464.90 346.74 467.01 343.91 468.83 340.89 C 470.07 342.91 471.28 344.97 472.44 347.05 C 474.65 343.91 475.97 340.27 476.95 336.59 C 479.16 340.89 480.94 345.42 481.87 350.18 C 484.67 348.47 487.25 346.43 489.53 344.07 C 493.36 345.40 497.26 346.51 501.19 347.49 C 501.20 345.00 501.27 342.51 501.41 340.03 C 504.81 339.78 508.33 339.89 511.53 338.50 C 509.97 337.63 507.75 336.34 508.47 334.22 C 519.13 334.19 529.84 335.43 540.47 334.24 C 550.19 332.13 560.18 333.12 570.05 332.91 C 575.92 332.92 581.66 331.28 587.10 329.17 C 591.90 327.43 595.40 322.24 594.58 317.10 C 593.94 312.88 590.11 309.75 586.06 309.02 C 579.65 307.95 573.09 308.59 566.76 309.84 C 555.78 311.81 544.19 312.82 533.37 309.47 C 529.27 308.27 525.38 305.70 520.99 305.99 C 517.66 306.64 517.57 310.60 516.65 313.18 C 515.11 311.04 513.11 308.89 513.10 306.09 C 512.72 303.19 514.27 300.63 515.51 298.15 C 511.20 293.63 507.49 287.52 508.78 281.02 C 510.10 273.99 516.31 269.33 522.46 266.52 M 494.47 280.51 C 490.16 282.25 485.43 282.05 480.88 282.35 C 482.75 284.19 484.59 286.08 486.29 288.08 C 483.19 288.10 480.07 288.23 476.99 287.93 C 474.01 287.67 471.51 285.87 468.89 284.62 C 469.99 286.59 471.13 288.53 472.21 290.52 C 465.95 290.32 461.08 286.00 455.22 284.55 C 451.67 283.42 447.82 288.55 450.58 291.44 C 452.36 293.72 457.30 293.51 457.35 290.01 C 457.98 287.80 455.53 287.31 454.18 286.34 C 454.96 287.67 455.75 289.00 456.55 290.33 C 455.20 291.01 453.36 292.70 451.94 291.21 C 450.49 290.26 450.00 287.73 451.72 286.81 C 454.51 284.07 458.24 286.90 461.11 288.07 C 465.33 290.54 470.14 291.69 475.01 291.72 C 474.33 290.37 473.40 289.21 472.21 288.24 C 477.32 289.59 482.78 290.12 487.93 288.67 C 487.77 286.34 485.14 285.36 483.77 283.81 C 490.13 282.83 497.45 282.32 501.99 277.14 C 499.41 278.10 497.01 279.45 494.47 280.51 M 483.00 304.35 C 481.23 302.83 479.53 301.22 477.79 299.68 C 477.61 301.80 477.41 303.92 477.20 306.04 C 475.65 304.28 474.13 302.52 472.61 300.75 C 472.83 303.25 473.01 305.76 473.15 308.27 C 471.29 306.94 469.48 305.54 467.70 304.10 C 466.54 305.84 465.33 307.55 464.10 309.24 C 461.49 307.27 459.35 304.79 458.13 301.73 C 458.04 305.81 461.09 308.65 464.24 310.72 C 465.63 309.39 466.71 307.79 467.85 306.25 C 469.87 307.79 471.91 309.32 473.96 310.84 C 474.22 309.10 474.47 307.34 474.73 305.61 C 475.27 306.16 476.33 307.26 476.87 307.81 C 477.73 306.20 478.62 304.61 479.54 303.04 C 480.63 304.46 481.73 305.90 482.87 307.29 C 483.55 305.47 484.15 303.61 484.59 301.72 C 485.63 301.89 486.67 302.07 487.72 302.26 C 489.44 303.82 490.80 305.74 492.52 307.32 C 492.61 306.49 492.78 304.83 492.87 304.01 C 490.17 303.55 487.88 301.98 485.56 300.67 L 487.94 299.70 C 487.22 299.87 485.79 300.22 485.07 300.39 C 484.87 299.67 484.47 298.22 484.27 297.50 C 483.84 299.78 483.47 302.07 483.00 304.35 Z" />
<path fill="#f5c14e" opacity="1.00" d=" M 416.08 303.16 C 418.42 303.53 420.69 304.24 422.87 305.19 C 430.25 308.43 437.93 311.42 446.06 312.00 C 449.78 311.77 450.05 316.31 451.02 318.85 C 447.35 318.15 443.67 317.48 439.93 317.45 C 440.42 316.28 441.00 315.15 441.42 313.96 C 434.78 313.32 428.01 312.70 421.76 310.20 C 418.80 308.99 416.42 306.42 416.08 303.16 Z" />
<path fill="#f5c14e" opacity="1.00" d=" M 396.25 347.32 C 399.31 344.15 406.07 347.49 405.23 352.01 C 404.65 356.44 400.06 358.96 396.00 359.46 C 390.73 359.99 385.25 360.17 380.13 358.57 C 377.12 357.62 374.40 355.26 373.78 352.06 C 372.78 346.27 383.88 343.14 383.95 350.09 C 383.28 350.65 381.93 351.77 381.25 352.32 C 385.40 356.18 391.84 355.62 396.71 353.56 C 397.08 352.19 396.24 351.00 395.66 349.85 C 395.81 349.22 396.10 347.95 396.25 347.32 Z" />
<path fill="#f5c14e" opacity="1.00" d=" M 391.83 361.11 C 394.83 360.76 397.78 360.11 400.72 359.42 C 406.84 365.59 413.43 371.30 419.30 377.71 C 422.61 381.09 423.92 385.79 426.75 389.51 C 429.42 393.07 432.80 396.00 435.89 399.18 C 432.56 403.15 427.89 407.95 422.19 406.71 C 416.99 404.16 413.87 398.80 408.91 395.90 C 406.87 395.51 405.55 397.82 403.92 398.70 C 402.88 394.50 403.31 390.17 403.00 385.91 C 403.01 384.04 401.29 382.99 400.20 381.74 C 401.50 378.29 402.44 373.97 400.35 370.65 C 401.04 369.08 401.77 367.52 402.59 366.02 C 402.00 366.07 400.82 366.16 400.24 366.21 C 400.82 364.46 401.40 362.73 401.90 360.97 C 399.81 361.82 397.76 362.75 395.75 363.77 C 394.41 362.93 393.10 362.03 391.83 361.11 Z" />
<path fill="#f5c14e" opacity="1.00" d=" M 383.21 361.08 C 387.25 361.25 391.16 362.35 394.86 363.94 C 394.81 364.68 394.71 366.15 394.66 366.89 C 390.60 366.79 386.72 365.54 383.09 363.81 C 383.12 363.13 383.18 361.76 383.21 361.08 Z" />
<path fill="#f5c14e" opacity="1.00" d=" M 396.16 365.23 C 397.63 364.12 399.13 363.06 400.71 362.09 C 400.20 364.75 397.99 366.37 396.11 368.07 C 396.12 367.36 396.15 365.94 396.16 365.23 Z" />
<path fill="#f5c14e" opacity="1.00" d=" M 382.38 369.45 C 380.75 368.66 380.33 364.83 382.95 365.37 C 387.15 365.62 390.93 367.73 394.75 369.30 C 394.79 369.95 394.87 371.25 394.92 371.90 C 390.64 371.85 386.36 370.98 382.38 369.45 Z" />
<path fill="#f5c14e" opacity="1.00" d=" M 398.92 367.45 C 399.48 368.07 400.03 368.71 400.57 369.35 C 399.02 370.80 397.37 372.15 395.61 373.33 C 395.82 370.91 397.45 369.21 398.92 367.45 Z" />
<path fill="#f5c14e" opacity="1.00" d=" M 383.34 374.63 C 381.08 372.99 384.00 370.76 385.90 371.41 C 389.45 372.06 394.39 372.58 395.43 376.78 C 391.37 376.97 386.88 376.78 383.34 374.63 Z" />
<path fill="#f5c14e" opacity="1.00" d=" M 395.49 378.35 C 395.88 375.21 398.58 373.43 400.71 371.45 C 400.55 374.70 398.50 377.30 395.49 378.35 Z" />
<path fill="#f5c14e" opacity="1.00" d=" M 383.76 376.72 C 388.02 376.99 393.22 377.20 395.41 381.57 C 391.26 382.76 383.84 382.49 383.76 376.72 Z" />
<path fill="#f5c14e" opacity="1.00" d=" M 395.80 382.60 C 396.26 379.87 398.49 378.22 400.79 377.03 C 400.31 379.78 398.10 381.42 395.80 382.60 Z" />
<path fill="#f5c14e" opacity="1.00" d=" M 385.23 385.83 C 385.72 384.52 386.21 383.21 386.70 381.90 C 388.59 382.78 390.45 383.75 392.22 384.88 C 394.43 385.08 400.26 385.33 397.87 388.79 C 395.55 388.88 393.26 388.55 390.97 388.31 C 391.55 390.83 392.85 393.08 394.48 395.07 C 392.99 397.68 391.03 400.64 392.17 403.78 C 392.63 405.90 394.48 407.10 396.17 408.21 C 396.58 407.49 397.38 406.06 397.79 405.35 C 398.88 405.64 399.96 405.94 401.05 406.25 C 401.45 410.76 396.71 411.75 393.41 412.93 C 393.28 414.94 395.76 415.98 396.93 417.39 C 395.18 417.68 393.44 418.00 391.72 418.35 C 391.07 420.54 390.04 422.60 388.43 424.26 C 387.41 422.35 386.57 420.34 385.41 418.52 C 383.91 417.91 382.30 417.69 380.74 417.34 C 382.00 415.97 383.23 414.58 384.42 413.14 C 381.59 412.01 377.86 411.40 376.64 408.19 C 376.93 407.38 377.50 405.74 377.79 404.93 C 379.34 405.95 380.87 407.01 382.38 408.11 C 386.12 404.57 385.88 398.94 383.00 394.96 C 384.23 393.21 385.44 391.44 386.63 389.66 C 383.94 388.68 378.31 389.56 379.26 385.20 C 381.20 384.03 383.27 385.40 385.23 385.83 Z" />
<path fill="#f5c14e" opacity="1.00" d=" M 529.61 387.35 C 534.25 387.49 539.12 387.61 543.33 389.82 C 547.39 391.82 550.29 395.39 553.51 398.45 C 556.07 400.93 558.98 403.00 561.89 405.05 C 559.94 407.70 557.13 411.20 559.42 414.51 C 561.20 417.72 565.14 417.16 568.23 417.50 C 566.44 423.32 560.08 426.74 559.38 432.96 C 560.28 437.69 561.72 442.54 559.59 447.20 C 556.36 447.61 553.42 446.22 550.78 444.52 C 548.52 448.13 543.33 447.92 541.03 444.45 C 539.46 445.52 538.00 447.06 536.00 447.24 C 534.03 447.02 532.55 445.54 530.99 444.48 C 528.68 445.75 526.29 446.85 523.76 447.58 C 524.17 443.66 526.65 439.29 530.99 438.99 C 535.65 438.12 541.74 439.50 544.65 434.74 C 544.83 427.78 545.20 420.50 543.11 413.78 C 538.76 404.91 529.01 398.21 529.61 387.35 Z" />
<path fill="#f5c14e" opacity="1.00" d=" M 549.47 480.64 C 548.46 476.80 547.38 472.96 546.95 469.01 C 549.17 472.04 551.25 475.48 554.71 477.27 C 560.40 480.26 567.10 480.37 572.84 483.24 C 576.27 485.00 578.96 488.96 577.71 492.92 C 576.65 496.14 574.78 499.12 574.66 502.61 C 569.49 502.05 565.02 506.18 559.89 504.91 C 556.50 504.33 553.44 501.97 552.34 498.68 C 550.36 492.86 551.03 486.55 549.47 480.64 Z" />
<path fill="#f5c14e" opacity="1.00" d=" M 391.40 559.49 C 397.01 558.21 400.86 553.67 403.69 548.96 C 402.54 556.05 399.78 562.82 399.57 570.07 C 398.98 575.37 398.54 582.28 392.86 584.69 C 387.00 587.66 381.33 583.03 375.39 582.96 C 375.73 577.78 370.38 573.18 373.16 568.08 C 376.70 561.51 385.21 561.79 391.40 559.49 Z" />
</g>
<g id="#81223aff">
<path fill="#81223a" opacity="1.00" d=" M 363.07 97.92 C 408.54 94.36 455.02 102.79 495.85 123.28 C 528.40 139.37 557.30 162.68 580.09 190.93 C 601.25 217.08 617.07 247.54 626.27 279.90 C 638.00 321.14 638.97 365.38 629.12 407.11 C 621.00 441.69 605.34 474.45 583.65 502.57 C 563.60 528.57 538.49 550.68 510.05 567.10 C 465.96 592.85 413.91 604.21 363.07 600.07 C 362.79 542.74 362.97 485.38 362.92 428.03 C 362.96 334.34 362.87 240.64 362.94 146.95 C 363.47 130.61 362.48 114.26 363.07 97.92 M 375.44 114.96 C 375.35 118.11 374.01 120.96 372.88 123.83 C 371.25 127.61 373.50 132.16 377.01 133.97 C 382.90 137.05 389.86 137.16 395.73 140.31 C 399.28 142.24 401.50 145.78 403.69 149.04 C 402.96 145.34 402.20 141.65 401.14 138.03 C 399.31 131.83 399.98 125.18 397.97 119.01 C 396.94 115.97 394.45 113.36 391.22 112.75 C 385.77 110.88 380.89 115.18 375.44 114.96 M 553.03 197.96 C 550.97 202.03 551.06 206.71 550.50 211.13 C 550.05 217.22 547.52 222.91 546.96 228.99 C 549.17 225.96 551.23 222.52 554.69 220.74 C 560.19 217.86 566.61 217.59 572.23 215.03 C 575.68 213.49 578.66 209.89 577.89 205.91 C 577.10 202.32 574.70 199.19 574.78 195.39 C 571.94 195.31 569.13 194.89 566.52 193.76 C 561.85 191.66 555.44 193.24 553.03 197.96 M 389.49 265.30 C 382.67 278.12 382.66 292.95 381.60 307.05 C 381.54 319.48 381.51 331.91 381.63 344.34 C 377.19 344.17 371.64 347.86 372.70 352.80 C 373.87 357.13 378.35 359.05 381.98 360.93 C 381.46 362.97 380.58 364.89 379.39 366.63 C 380.03 368.06 380.66 369.49 381.26 370.95 C 381.91 375.27 383.19 379.47 384.61 383.60 C 382.78 383.54 380.97 383.49 379.15 383.42 C 378.65 384.50 378.08 385.56 377.69 386.69 C 378.53 389.21 381.14 390.11 383.41 390.88 C 382.67 392.97 380.87 395.32 382.58 397.44 C 384.30 400.00 383.78 403.08 382.84 405.83 C 380.77 405.27 378.69 404.77 376.61 404.27 C 376.16 405.98 375.73 407.70 375.34 409.44 C 377.24 410.87 379.17 412.28 381.12 413.66 C 380.51 415.77 378.81 417.14 377.09 418.35 C 379.30 418.55 381.70 418.21 383.77 419.14 C 385.25 420.72 386.26 422.66 387.38 424.50 C 388.50 424.48 389.62 424.46 390.74 424.46 C 391.42 422.73 392.07 421.00 392.72 419.28 C 395.13 418.85 397.55 418.52 399.99 418.30 C 398.48 416.90 396.98 415.49 395.51 414.06 C 397.92 412.54 400.31 410.99 402.74 409.51 C 402.23 407.77 401.61 406.08 400.85 404.45 C 398.27 404.58 395.68 404.67 393.10 404.70 C 393.22 402.05 393.59 399.40 394.86 397.03 C 396.32 394.80 394.20 392.52 393.49 390.44 C 394.84 390.44 396.20 390.43 397.57 390.43 C 398.84 389.11 400.11 387.79 401.40 386.50 C 401.70 391.42 400.73 397.33 405.14 400.80 C 406.08 399.44 407.01 398.08 407.95 396.73 C 411.98 399.31 415.18 402.90 418.86 405.92 C 420.81 407.34 423.17 409.26 425.74 408.22 C 430.16 406.60 433.68 403.35 436.90 400.03 C 441.25 402.63 445.65 405.20 450.47 406.86 C 452.53 413.46 455.51 420.01 455.48 427.05 C 455.66 430.93 452.36 434.12 448.90 435.25 C 444.53 436.03 440.02 435.00 435.66 435.85 C 431.18 438.34 429.06 443.71 429.41 448.68 C 431.91 448.07 434.48 446.93 437.09 447.63 C 439.36 448.19 441.71 448.45 443.99 447.74 C 447.46 446.57 450.90 449.13 454.38 447.95 C 458.46 446.64 462.60 448.18 466.67 448.68 C 468.47 446.35 470.02 443.82 471.00 441.03 C 470.55 438.25 470.37 435.44 470.24 432.63 C 476.15 430.77 483.15 427.71 484.66 421.02 C 481.16 420.34 477.71 419.44 474.29 418.44 C 473.30 412.22 477.96 407.58 480.77 402.60 C 493.08 398.52 504.33 391.71 516.86 388.24 C 520.62 387.17 524.56 387.34 528.43 387.39 C 528.66 390.17 528.76 393.03 529.81 395.67 C 532.72 402.92 539.41 407.86 542.25 415.14 C 544.14 419.51 543.36 424.38 543.57 429.00 C 543.41 430.97 543.92 433.16 543.01 435.00 C 539.39 438.57 534.03 437.07 529.54 437.91 C 524.89 439.29 522.79 444.24 522.29 448.68 C 525.27 448.39 528.08 447.28 530.98 446.58 C 534.08 448.34 537.39 448.40 540.77 447.54 C 544.45 448.44 548.11 448.00 551.80 447.40 C 556.89 448.37 562.31 449.36 567.09 446.67 C 568.69 447.35 570.24 448.32 572.02 448.49 C 574.06 448.13 575.91 447.12 577.93 446.69 C 580.33 447.52 582.79 448.94 585.39 447.95 C 589.49 446.66 593.64 448.25 597.74 448.68 C 598.29 447.82 598.92 447.00 599.38 446.08 C 597.94 441.82 594.42 438.50 593.47 434.05 C 593.00 430.02 596.59 427.50 599.38 425.33 C 601.83 423.67 603.28 421.06 604.40 418.41 C 603.92 417.52 603.44 416.63 602.97 415.75 C 601.51 415.69 600.05 415.64 598.60 415.62 C 591.70 408.64 592.46 397.66 595.83 389.18 C 598.17 380.82 602.84 372.88 602.51 363.96 C 602.38 359.31 602.70 354.65 602.33 350.01 C 601.41 344.72 597.26 340.84 595.29 335.99 C 595.85 333.01 599.29 331.58 600.85 329.06 C 606.01 322.62 605.09 312.53 598.96 307.06 C 594.33 303.04 588.24 300.25 582.01 300.63 C 569.74 300.42 557.71 305.06 545.44 303.13 C 541.48 302.48 539.24 298.84 539.04 295.07 C 535.88 295.70 533.27 297.57 530.64 299.30 C 530.25 297.36 528.33 294.98 530.26 293.32 C 532.52 291.10 535.47 289.80 538.14 288.16 C 534.72 285.97 530.52 284.49 526.49 285.79 C 524.05 286.97 521.98 288.75 519.77 290.27 C 517.62 287.68 516.37 284.18 517.64 280.90 C 519.56 278.14 522.98 277.40 526.14 277.31 C 527.03 278.85 527.93 280.38 528.85 281.92 C 531.90 279.89 532.88 276.40 532.67 272.88 C 536.95 272.91 540.22 275.57 542.73 278.79 C 542.63 281.17 542.73 283.59 542.28 285.96 C 541.23 288.44 539.44 290.52 537.92 292.72 C 542.28 291.70 547.33 291.17 550.33 287.41 C 553.39 284.19 552.10 279.35 553.54 275.46 C 555.82 277.38 558.92 279.58 558.52 283.00 C 558.09 286.50 555.91 289.42 554.40 292.52 C 559.57 293.12 564.32 290.29 566.90 285.90 C 570.47 289.85 575.22 292.44 580.37 293.68 C 580.36 293.09 580.34 291.93 580.33 291.35 C 579.41 289.53 578.56 287.68 577.85 285.78 C 579.81 286.44 581.75 287.30 583.20 288.83 C 586.71 292.27 590.40 295.74 595.05 297.56 C 599.48 299.42 605.02 298.93 608.73 295.74 C 611.34 293.38 610.27 289.56 610.46 286.47 C 609.17 285.17 607.90 283.87 606.64 282.57 C 604.99 282.63 603.35 282.69 601.71 282.75 C 599.87 284.77 598.70 290.32 595.12 288.07 C 589.05 284.25 583.99 279.05 578.04 275.07 C 570.42 270.04 562.37 265.34 553.45 263.07 C 543.79 261.01 533.38 260.63 524.09 264.44 C 518.33 266.34 514.02 270.75 509.39 274.42 C 509.44 271.74 509.51 269.07 509.59 266.39 C 507.81 268.46 506.01 270.52 504.21 272.57 C 502.43 272.61 500.66 272.67 498.89 272.73 C 494.98 270.18 491.34 266.19 486.29 266.47 C 485.44 268.46 484.47 270.39 483.44 272.30 C 481.55 270.66 479.75 268.88 477.61 267.56 C 475.59 266.24 473.05 266.64 470.78 266.43 C 470.40 268.35 471.26 272.11 468.20 271.82 C 465.32 271.14 462.94 269.01 459.97 268.62 C 456.68 268.58 453.45 269.36 450.20 269.77 C 450.80 271.26 451.40 272.76 452.03 274.26 C 450.65 275.61 449.40 277.18 447.69 278.13 C 444.84 278.82 441.87 278.78 439.03 279.53 C 435.62 280.29 432.31 282.09 428.72 281.52 C 426.90 280.37 427.52 278.00 427.23 276.21 C 423.75 272.46 417.23 272.90 414.83 277.60 C 413.67 282.32 415.28 287.36 417.68 291.45 C 421.96 297.61 427.75 302.47 433.28 307.44 C 427.04 307.34 422.23 301.76 415.78 302.39 C 415.41 303.25 415.04 304.11 414.68 304.97 C 415.71 306.57 416.83 308.13 417.57 309.90 C 416.65 314.56 414.71 318.95 413.28 323.47 C 416.42 322.69 419.64 322.32 422.87 322.20 C 422.44 323.75 422.03 325.30 421.64 326.86 C 424.77 325.94 428.01 325.38 431.28 325.33 C 433.23 327.49 436.05 327.57 438.74 327.43 C 439.80 329.10 440.97 330.79 442.77 331.73 C 444.06 329.53 445.49 327.42 447.21 325.53 C 447.64 327.12 449.63 329.33 447.83 330.80 C 445.31 333.52 441.85 335.03 438.79 337.02 C 431.15 342.30 425.33 349.97 422.02 358.63 C 419.53 363.67 420.60 369.41 420.57 374.81 C 416.99 374.77 415.11 371.41 412.78 369.24 C 409.72 365.92 405.89 363.30 403.36 359.52 C 403.05 356.31 407.20 354.34 406.50 350.95 C 406.47 346.60 401.81 345.16 398.36 344.31 C 398.54 335.54 398.31 326.75 398.65 317.98 C 399.74 309.01 399.12 299.97 399.65 290.98 C 401.07 277.10 401.36 262.80 406.61 249.68 C 405.97 249.61 404.70 249.48 404.06 249.42 C 397.99 253.41 392.66 258.69 389.49 265.30 M 549.47 480.64 C 551.03 486.55 550.36 492.86 552.34 498.68 C 553.44 501.97 556.50 504.33 559.89 504.91 C 565.02 506.18 569.49 502.05 574.66 502.61 C 574.78 499.12 576.65 496.14 577.71 492.92 C 578.96 488.96 576.27 485.00 572.84 483.24 C 567.10 480.37 560.40 480.26 554.71 477.27 C 551.25 475.48 549.17 472.04 546.95 469.01 C 547.38 472.96 548.46 476.80 549.47 480.64 M 391.40 559.49 C 385.21 561.79 376.70 561.51 373.16 568.08 C 370.38 573.18 375.73 577.78 375.39 582.96 C 381.33 583.03 387.00 587.66 392.86 584.69 C 398.54 582.28 398.98 575.37 399.57 570.07 C 399.78 562.82 402.54 556.05 403.69 548.96 C 400.86 553.67 397.01 558.21 391.40 559.49 Z" />
<path fill="#81223a" opacity="1.00" d=" M 504.39 280.58 C 505.16 280.38 506.71 279.98 507.49 279.78 C 507.55 283.13 507.18 286.64 508.51 289.81 C 509.72 293.06 512.27 295.60 513.55 298.81 C 512.87 301.46 511.07 303.98 511.65 306.82 C 512.22 309.85 514.41 312.18 516.33 314.46 C 516.74 314.39 517.57 314.23 517.99 314.16 C 518.44 311.85 518.95 309.56 519.45 307.26 C 526.83 306.53 532.90 311.68 540.05 312.37 C 544.70 312.77 549.38 312.52 554.05 312.60 C 563.83 312.75 573.18 308.76 583.00 309.41 C 586.32 309.32 589.13 311.45 591.55 313.49 C 595.02 316.47 593.49 321.90 591.05 325.05 C 587.50 329.25 581.59 329.69 576.61 331.04 C 567.00 332.44 557.22 330.86 547.57 331.84 C 534.48 335.02 520.95 332.80 507.65 333.55 C 504.68 330.90 501.94 327.70 502.13 323.44 C 503.65 323.42 505.19 323.40 506.72 323.38 C 505.85 320.94 504.75 318.56 504.34 315.99 C 504.49 313.19 506.49 310.83 506.42 307.98 C 506.55 302.62 506.60 297.26 506.47 291.91 C 506.62 287.87 502.10 284.63 504.39 280.58 Z" />
<path fill="#81223a" opacity="1.00" d=" M 433.17 308.18 C 433.43 306.29 433.80 304.40 434.58 302.66 C 435.47 303.46 436.45 304.32 437.38 305.13 C 438.53 304.79 439.69 304.42 440.88 304.17 C 443.36 305.38 444.46 308.04 445.27 310.51 C 441.07 310.83 437.07 309.54 433.17 308.18 Z" />
<path fill="#81223a" opacity="1.00" d=" M 489.53 370.96 C 490.68 375.42 489.94 380.05 488.44 384.34 C 488.34 383.90 488.14 383.01 488.03 382.57 C 488.48 378.69 488.80 374.79 489.53 370.96 Z" />
<path fill="#81223a" opacity="1.00" d=" M 561.74 406.12 C 567.37 406.58 571.79 410.58 575.95 414.02 C 581.34 419.03 578.88 427.06 579.62 433.53 C 577.59 434.57 575.46 435.41 573.22 435.88 C 569.20 436.75 565.66 438.99 561.68 440.01 C 561.34 436.70 559.37 432.93 561.40 429.84 C 563.96 425.78 567.13 422.14 569.65 418.05 C 568.94 417.29 568.23 416.53 567.54 415.78 C 564.26 415.91 560.90 415.53 559.05 412.49 C 559.97 410.37 560.87 408.25 561.74 406.12 Z" />
</g>
<g id="#dc7b2eff">
<path fill="#dc7b2e" opacity="1.00" d=" M 224.05 154.36 C 252.03 131.52 284.83 114.33 319.90 105.51 C 319.83 267.85 319.87 430.18 319.87 592.53 C 284.99 583.63 252.24 566.67 224.41 543.88 C 224.70 486.24 224.43 428.60 224.53 370.96 C 224.52 302.96 224.54 234.95 224.52 166.94 C 224.60 162.74 224.58 158.53 224.05 154.36 Z" />
</g>
<g id="#21514fff">
<path fill="#21514f" opacity="1.00" d=" M 151.41 252.18 C 167.10 214.25 192.45 180.49 224.05 154.36 C 224.58 158.53 224.60 162.74 224.52 166.94 C 224.54 234.95 224.52 302.96 224.53 370.96 C 224.43 428.60 224.70 486.24 224.41 543.88 C 193.77 518.75 169.07 486.38 153.21 450.04 C 125.78 387.99 125.11 314.72 151.41 252.18 Z" />
<path fill="#21514f" opacity="1.00" d=" M 389.49 265.30 C 392.66 258.69 397.99 253.41 404.06 249.42 C 404.70 249.48 405.97 249.61 406.61 249.68 C 401.36 262.80 401.07 277.10 399.65 290.98 C 399.12 299.97 399.74 309.01 398.65 317.98 C 398.31 326.75 398.54 335.54 398.36 344.31 C 401.81 345.16 406.47 346.60 406.50 350.95 C 407.20 354.34 403.05 356.31 403.36 359.52 C 405.89 363.30 409.72 365.92 412.78 369.24 C 415.11 371.41 416.99 374.77 420.57 374.81 C 420.60 369.41 419.53 363.67 422.02 358.63 C 425.33 349.97 431.15 342.30 438.79 337.02 C 441.85 335.03 445.31 333.52 447.83 330.80 C 449.63 329.33 447.64 327.12 447.21 325.53 C 445.49 327.42 444.06 329.53 442.77 331.73 C 440.97 330.79 439.80 329.10 438.74 327.43 C 436.05 327.57 433.23 327.49 431.28 325.33 C 428.01 325.38 424.77 325.94 421.64 326.86 C 422.03 325.30 422.44 323.75 422.87 322.20 C 419.64 322.32 416.42 322.69 413.28 323.47 C 414.71 318.95 416.65 314.56 417.57 309.90 C 416.83 308.13 415.71 306.57 414.68 304.97 C 415.04 304.11 415.41 303.25 415.78 302.39 C 422.23 301.76 427.04 307.34 433.28 307.44 C 427.75 302.47 421.96 297.61 417.68 291.45 C 415.28 287.36 413.67 282.32 414.83 277.60 C 417.23 272.90 423.75 272.46 427.23 276.21 C 427.52 278.00 426.90 280.37 428.72 281.52 C 432.31 282.09 435.62 280.29 439.03 279.53 C 441.87 278.78 444.84 278.82 447.69 278.13 C 449.40 277.18 450.65 275.61 452.03 274.26 C 451.40 272.76 450.80 271.26 450.20 269.77 C 453.45 269.36 456.68 268.58 459.97 268.62 C 462.94 269.01 465.32 271.14 468.20 271.82 C 471.26 272.11 470.40 268.35 470.78 266.43 C 473.05 266.64 475.59 266.24 477.61 267.56 C 479.75 268.88 481.55 270.66 483.44 272.30 C 484.47 270.39 485.44 268.46 486.29 266.47 C 491.34 266.19 494.98 270.18 498.89 272.73 C 500.66 272.67 502.43 272.61 504.21 272.57 C 506.01 270.52 507.81 268.46 509.59 266.39 C 509.51 269.07 509.44 271.74 509.39 274.42 C 514.02 270.75 518.33 266.34 524.09 264.44 C 533.38 260.63 543.79 261.01 553.45 263.07 C 562.37 265.34 570.42 270.04 578.04 275.07 C 583.99 279.05 589.05 284.25 595.12 288.07 C 598.70 290.32 599.87 284.77 601.71 282.75 C 603.35 282.69 604.99 282.63 606.64 282.57 C 607.90 283.87 609.17 285.17 610.46 286.47 C 610.27 289.56 611.34 293.38 608.73 295.74 C 605.02 298.93 599.48 299.42 595.05 297.56 C 590.40 295.74 586.71 292.27 583.20 288.83 C 581.75 287.30 579.81 286.44 577.85 285.78 C 578.56 287.68 579.41 289.53 580.33 291.35 C 580.34 291.93 580.36 293.09 580.37 293.68 C 575.22 292.44 570.47 289.85 566.90 285.90 C 564.32 290.29 559.57 293.12 554.40 292.52 C 555.91 289.42 558.09 286.50 558.52 283.00 C 558.92 279.58 555.82 277.38 553.54 275.46 C 552.10 279.35 553.39 284.19 550.33 287.41 C 547.33 291.17 542.28 291.70 537.92 292.72 C 539.44 290.52 541.23 288.44 542.28 285.96 C 542.73 283.59 542.63 281.17 542.73 278.79 C 540.22 275.57 536.95 272.91 532.67 272.88 C 532.88 276.40 531.90 279.89 528.85 281.92 C 527.93 280.38 527.03 278.85 526.14 277.31 C 522.98 277.40 519.56 278.14 517.64 280.90 C 516.37 284.18 517.62 287.68 519.77 290.27 C 521.98 288.75 524.05 286.97 526.49 285.79 C 530.52 284.49 534.72 285.97 538.14 288.16 C 535.47 289.80 532.52 291.10 530.26 293.32 C 528.33 294.98 530.25 297.36 530.64 299.30 C 533.27 297.57 535.88 295.70 539.04 295.07 C 539.24 298.84 541.48 302.48 545.44 303.13 C 557.71 305.06 569.74 300.42 582.01 300.63 C 588.24 300.25 594.33 303.04 598.96 307.06 C 605.09 312.53 606.01 322.62 600.85 329.06 C 599.29 331.58 595.85 333.01 595.29 335.99 C 597.26 340.84 601.41 344.72 602.33 350.01 C 602.70 354.65 602.38 359.31 602.51 363.96 C 602.84 372.88 598.17 380.82 595.83 389.18 C 592.46 397.66 591.70 408.64 598.60 415.62 C 600.05 415.64 601.51 415.69 602.97 415.75 C 603.44 416.63 603.92 417.52 604.40 418.41 C 603.28 421.06 601.83 423.67 599.38 425.33 C 596.59 427.50 593.00 430.02 593.47 434.05 C 594.42 438.50 597.94 441.82 599.38 446.08 C 598.92 447.00 598.29 447.82 597.74 448.68 C 593.64 448.25 589.49 446.66 585.39 447.95 C 582.79 448.94 580.33 447.52 577.93 446.69 C 575.91 447.12 574.06 448.13 572.02 448.49 C 570.24 448.32 568.69 447.35 567.09 446.67 C 562.31 449.36 556.89 448.37 551.80 447.40 C 548.11 448.00 544.45 448.44 540.77 447.54 C 537.39 448.40 534.08 448.34 530.98 446.58 C 528.08 447.28 525.27 448.39 522.29 448.68 C 522.79 444.24 524.89 439.29 529.54 437.91 C 534.03 437.07 539.39 438.57 543.01 435.00 C 543.92 433.16 543.41 430.97 543.57 429.00 C 543.36 424.38 544.14 419.51 542.25 415.14 C 539.41 407.86 532.72 402.92 529.81 395.67 C 528.76 393.03 528.66 390.17 528.43 387.39 C 524.56 387.34 520.62 387.17 516.86 388.24 C 504.33 391.71 493.08 398.52 480.77 402.60 C 477.96 407.58 473.30 412.22 474.29 418.44 C 477.71 419.44 481.16 420.34 484.66 421.02 C 483.15 427.71 476.15 430.77 470.24 432.63 C 470.37 435.44 470.55 438.25 471.00 441.03 C 470.02 443.82 468.47 446.35 466.67 448.68 C 462.60 448.18 458.46 446.64 454.38 447.95 C 450.90 449.13 447.46 446.57 443.99 447.74 C 441.71 448.45 439.36 448.19 437.09 447.63 C 434.48 446.93 431.91 448.07 429.41 448.68 C 429.06 443.71 431.18 438.34 435.66 435.85 C 440.02 435.00 444.53 436.03 448.90 435.25 C 452.36 434.12 455.66 430.93 455.48 427.05 C 455.51 420.01 452.53 413.46 450.47 406.86 C 445.65 405.20 441.25 402.63 436.90 400.03 C 433.68 403.35 430.16 406.60 425.74 408.22 C 423.17 409.26 420.81 407.34 418.86 405.92 C 415.18 402.90 411.98 399.31 407.95 396.73 C 407.01 398.08 406.08 399.44 405.14 400.80 C 400.73 397.33 401.70 391.42 401.40 386.50 C 400.11 387.79 398.84 389.11 397.57 390.43 C 396.20 390.43 394.84 390.44 393.49 390.44 C 394.20 392.52 396.32 394.80 394.86 397.03 C 393.59 399.40 393.22 402.05 393.10 404.70 C 395.68 404.67 398.27 404.58 400.85 404.45 C 401.61 406.08 402.23 407.77 402.74 409.51 C 400.31 410.99 397.92 412.54 395.51 414.06 C 396.98 415.49 398.48 416.90 399.99 418.30 C 397.55 418.52 395.13 418.85 392.72 419.28 C 392.07 421.00 391.42 422.73 390.74 424.46 C 389.62 424.46 388.50 424.48 387.38 424.50 C 386.26 422.66 385.25 420.72 383.77 419.14 C 381.70 418.21 379.30 418.55 377.09 418.35 C 378.81 417.14 380.51 415.77 381.12 413.66 C 379.17 412.28 377.24 410.87 375.34 409.44 C 375.73 407.70 376.16 405.98 376.61 404.27 C 378.69 404.77 380.77 405.27 382.84 405.83 C 383.78 403.08 384.30 400.00 382.58 397.44 C 380.87 395.32 382.67 392.97 383.41 390.88 C 381.14 390.11 378.53 389.21 377.69 386.69 C 378.08 385.56 378.65 384.50 379.15 383.42 C 380.97 383.49 382.78 383.54 384.61 383.60 C 383.19 379.47 381.91 375.27 381.26 370.95 C 380.66 369.49 380.03 368.06 379.39 366.63 C 380.58 364.89 381.46 362.97 381.98 360.93 C 378.35 359.05 373.87 357.13 372.70 352.80 C 371.64 347.86 377.19 344.17 381.63 344.34 C 381.51 331.91 381.54 319.48 381.60 307.05 C 382.66 292.95 382.67 278.12 389.49 265.30 M 395.42 258.52 C 386.98 268.65 384.56 282.15 383.53 294.92 C 382.62 309.91 382.42 324.94 382.71 339.95 C 382.52 344.61 385.44 349.00 383.61 353.64 C 387.68 353.90 391.76 353.83 395.82 353.38 C 394.32 350.21 394.76 346.81 396.69 343.98 C 397.97 322.32 397.34 300.53 399.60 278.92 C 400.52 269.34 401.22 259.51 405.05 250.56 C 401.46 252.70 398.04 255.22 395.42 258.52 M 522.46 266.52 C 516.31 269.33 510.10 273.99 508.78 281.02 C 507.49 287.52 511.20 293.63 515.51 298.15 C 514.27 300.63 512.72 303.19 513.10 306.09 C 513.11 308.89 515.11 311.04 516.65 313.18 C 517.57 310.60 517.66 306.64 520.99 305.99 C 525.38 305.70 529.27 308.27 533.37 309.47 C 544.19 312.82 555.78 311.81 566.76 309.84 C 573.09 308.59 579.65 307.95 586.06 309.02 C 590.11 309.75 593.94 312.88 594.58 317.10 C 595.40 322.24 591.90 327.43 587.10 329.17 C 581.66 331.28 575.92 332.92 570.05 332.91 C 560.18 333.12 550.19 332.13 540.47 334.24 C 529.84 335.43 519.13 334.19 508.47 334.22 C 507.75 336.34 509.97 337.63 511.53 338.50 C 508.33 339.89 504.81 339.78 501.41 340.03 C 501.27 342.51 501.20 345.00 501.19 347.49 C 497.26 346.51 493.36 345.40 489.53 344.07 C 487.25 346.43 484.67 348.47 481.87 350.18 C 480.94 345.42 479.16 340.89 476.95 336.59 C 475.97 340.27 474.65 343.91 472.44 347.05 C 471.28 344.97 470.07 342.91 468.83 340.89 C 467.01 343.91 464.90 346.74 462.48 349.31 C 462.01 347.10 461.65 344.85 461.36 342.63 C 459.84 346.57 456.34 348.89 452.84 350.88 C 452.87 347.93 452.28 345.03 451.37 342.24 C 448.65 342.79 445.97 343.52 443.24 344.02 C 445.84 340.93 446.96 336.94 449.36 333.73 C 448.21 336.82 447.04 339.90 445.91 342.99 C 448.03 342.03 450.17 341.07 452.28 340.07 C 452.75 343.01 453.36 345.92 454.11 348.80 C 458.27 347.37 460.22 343.40 460.97 339.34 C 461.78 341.53 462.44 343.78 463.47 345.89 C 466.66 345.30 467.03 340.75 468.49 338.26 C 469.62 340.72 470.98 343.19 473.49 344.49 C 474.67 341.13 474.97 337.09 477.96 334.72 C 479.04 339.40 480.96 343.81 482.73 348.26 C 485.47 347.01 487.53 344.79 489.43 342.54 C 492.76 344.32 496.32 345.67 500.12 345.94 C 500.24 343.52 500.36 341.12 500.46 338.70 C 503.22 338.80 506.00 338.86 508.77 338.65 C 507.97 337.61 507.14 336.59 506.36 335.55 C 501.39 331.40 493.96 331.78 489.66 326.51 C 489.28 327.31 488.51 328.91 488.13 329.71 C 486.52 328.86 485.00 327.84 483.47 326.87 C 483.50 329.94 483.26 333.02 482.34 335.96 C 480.21 332.76 477.27 330.27 473.87 328.52 C 473.20 330.88 472.35 333.20 471.27 335.41 C 469.81 332.41 468.20 329.49 466.22 326.80 C 464.39 329.41 462.33 332.00 459.34 333.34 C 459.41 331.40 459.43 329.46 459.39 327.52 C 457.71 329.33 456.03 331.13 454.27 332.86 C 453.37 330.08 452.86 327.19 452.62 324.29 C 453.72 326.35 454.62 328.50 455.60 330.63 C 456.60 328.82 457.38 326.89 458.58 325.20 C 461.08 325.17 459.98 329.61 460.99 331.23 C 462.67 329.22 464.37 327.23 466.04 325.21 C 468.06 327.41 469.84 329.82 471.38 332.39 C 471.71 330.30 472.08 328.23 472.47 326.16 C 475.91 328.19 479.11 330.57 482.32 332.94 C 482.94 329.19 482.27 325.34 479.10 322.95 C 478.50 323.62 477.31 324.97 476.72 325.64 C 475.33 322.96 473.67 320.43 471.72 318.13 C 470.30 319.61 469.48 321.90 467.53 322.74 C 464.89 320.73 462.58 318.16 461.60 314.94 C 463.69 317.18 465.75 319.46 468.13 321.42 C 468.88 319.53 469.61 317.64 470.34 315.76 C 472.93 317.76 475.18 320.17 476.95 322.93 C 477.28 322.36 477.94 321.21 478.27 320.64 C 481.18 323.28 483.97 326.10 487.46 328.02 C 487.95 326.67 488.45 325.34 488.95 324.00 C 492.18 328.92 497.90 331.90 503.79 331.72 C 501.80 328.71 501.14 325.19 500.16 321.80 C 497.38 318.55 493.36 316.56 490.71 313.13 C 490.13 314.71 489.55 316.29 488.95 317.86 C 487.54 316.67 486.13 315.48 484.74 314.28 C 483.69 316.02 482.66 317.76 481.65 319.53 C 479.89 317.19 477.93 315.01 476.07 312.75 C 478.13 314.27 480.10 315.93 482.16 317.48 C 482.57 315.40 482.79 313.30 482.96 311.19 C 484.68 312.94 486.48 314.61 488.38 316.17 C 489.22 314.55 490.06 312.94 490.89 311.33 C 494.58 316.38 499.73 320.07 505.16 323.07 C 503.78 319.48 503.06 315.70 502.16 311.98 C 500.30 309.53 497.15 308.10 496.03 305.11 C 495.02 302.33 494.59 299.39 493.81 296.55 C 493.48 298.19 493.13 299.82 492.76 301.46 C 492.32 298.93 491.86 296.41 491.54 293.87 C 494.22 296.14 495.71 299.30 496.30 302.72 C 497.09 307.19 501.40 309.49 504.52 312.25 C 504.91 308.08 505.17 303.91 505.25 299.73 C 503.13 298.20 501.11 296.55 499.18 294.80 C 499.20 294.35 499.26 293.44 499.29 292.99 C 501.29 295.05 503.29 297.13 505.27 299.21 C 505.60 293.60 505.27 287.57 501.35 283.15 C 505.10 279.51 507.93 274.96 508.64 269.71 C 506.04 272.52 502.16 275.86 498.12 273.73 C 494.83 271.19 491.49 268.63 487.49 267.30 C 486.36 269.72 485.18 272.12 483.99 274.51 C 480.65 270.97 476.77 267.63 471.69 267.20 C 471.10 269.61 472.11 273.53 468.99 274.37 C 466.46 273.22 464.41 271.20 461.76 270.32 C 458.56 269.77 455.31 270.31 452.12 270.56 C 452.50 271.76 452.89 272.95 453.30 274.15 C 451.51 276.60 449.46 279.47 446.16 279.71 C 439.53 280.08 433.29 282.59 426.66 282.91 C 426.51 281.22 426.79 279.46 426.23 277.84 C 424.39 274.04 417.73 274.13 416.09 278.10 C 414.90 280.99 415.98 284.16 416.80 287.01 C 417.88 291.16 421.40 293.90 424.12 296.97 C 426.45 299.60 428.84 302.21 431.76 304.22 C 431.83 302.66 431.91 301.12 431.98 299.57 C 433.88 301.07 435.79 302.57 437.77 303.98 C 438.40 302.28 439.02 300.59 439.67 298.91 C 443.16 306.05 450.88 311.02 451.68 319.38 C 447.19 318.92 442.71 318.31 438.19 318.40 C 438.89 317.16 439.58 315.92 440.28 314.69 C 433.23 314.27 426.17 313.17 419.60 310.47 C 417.11 313.80 416.40 317.99 415.19 321.88 C 418.86 321.52 422.50 320.94 426.12 320.22 C 425.41 321.88 424.70 323.54 423.99 325.21 C 426.41 324.53 428.81 323.79 431.17 322.92 C 432.48 324.36 433.79 325.81 435.15 327.21 C 435.71 325.61 436.28 324.02 436.87 322.43 C 438.67 324.94 440.31 327.55 442.02 330.13 C 443.67 328.22 444.99 324.94 448.06 325.39 C 449.37 326.17 449.79 327.77 450.63 328.97 C 448.58 331.83 445.97 334.21 442.90 335.92 C 433.74 341.33 425.94 349.70 422.93 360.08 C 420.31 367.76 420.65 376.46 424.32 383.74 C 429.41 394.11 439.25 401.40 449.87 405.44 C 448.69 397.73 446.83 389.27 450.44 381.91 C 449.61 387.23 448.62 392.64 449.52 398.02 C 450.87 405.63 453.96 412.77 455.91 420.22 C 457.02 424.90 457.51 430.91 453.19 434.16 C 448.47 438.44 441.74 435.84 436.14 437.18 C 432.30 438.96 431.07 443.49 430.01 447.24 C 432.14 446.84 434.17 446.09 436.08 445.10 C 437.31 445.88 438.49 446.82 439.94 447.22 C 442.31 447.52 444.35 446.01 446.35 444.97 C 448.11 445.97 449.85 447.38 452.00 447.28 C 454.12 447.14 455.98 445.98 457.86 445.11 C 460.79 446.30 465.36 448.99 467.68 445.56 C 471.08 441.72 468.60 436.45 468.75 431.95 C 474.43 430.06 480.80 427.80 483.22 421.75 C 479.93 421.09 475.87 421.27 473.55 418.43 C 471.67 415.43 473.68 411.93 475.21 409.25 C 480.50 400.91 485.56 392.21 488.03 382.57 C 488.14 383.01 488.34 383.90 488.44 384.34 C 486.88 390.20 484.14 395.63 481.38 400.99 C 494.85 396.89 506.88 388.62 520.90 386.20 C 527.09 385.49 533.45 385.41 539.59 386.60 C 545.40 387.87 549.71 392.20 553.69 396.31 C 559.94 402.67 568.17 406.42 575.20 411.76 C 577.88 413.70 579.87 416.66 580.10 420.03 C 580.54 424.21 581.26 428.51 580.52 432.70 C 579.58 436.39 575.06 436.36 572.12 437.38 C 567.06 438.45 561.62 441.88 561.44 447.61 C 563.61 446.72 565.70 445.64 567.76 444.51 C 569.01 445.62 570.14 447.20 571.98 447.30 C 574.17 447.00 575.97 445.62 577.85 444.56 C 579.74 445.74 581.63 447.44 584.04 447.22 C 585.80 447.14 586.90 445.56 588.17 444.55 C 591.18 446.54 594.70 447.44 598.30 447.05 C 596.97 442.14 592.42 438.43 592.61 433.07 C 592.43 425.88 602.36 424.74 602.96 417.74 C 596.06 417.18 592.72 410.15 592.45 403.99 C 591.49 389.59 601.10 377.23 601.69 363.04 C 601.93 357.64 602.25 352.00 600.10 346.91 C 598.49 342.51 595.58 338.80 592.86 335.05 C 596.34 332.15 600.15 329.19 601.84 324.84 C 603.35 320.69 603.27 315.84 601.10 311.93 C 598.50 306.90 593.21 303.83 587.88 302.48 C 574.20 300.62 560.74 305.69 547.06 304.38 C 544.44 304.07 541.74 303.05 539.99 301.02 C 539.18 299.41 538.80 297.64 538.25 295.94 C 535.33 297.14 533.24 299.54 531.18 301.82 C 529.85 299.16 527.75 296.16 529.02 293.08 C 530.38 290.62 533.28 289.68 535.49 288.17 C 533.20 287.01 530.68 285.78 528.07 286.62 C 524.79 287.01 523.03 289.97 520.84 292.02 C 517.94 290.42 515.61 287.38 515.59 283.97 C 515.73 278.93 521.54 275.15 526.23 276.74 C 527.47 277.69 528.47 278.91 529.63 279.96 C 531.66 277.40 531.25 274.00 531.32 270.95 C 535.81 271.15 540.21 273.59 542.74 277.31 C 545.23 281.78 543.07 286.95 540.76 291.01 C 544.40 290.01 548.48 288.87 550.52 285.39 C 552.92 281.32 551.47 276.43 549.78 272.39 C 553.33 273.79 557.13 275.59 558.78 279.29 C 561.33 283.47 558.08 287.95 556.23 291.69 C 558.72 290.91 561.50 290.38 563.41 288.44 C 564.87 286.70 565.47 284.45 566.29 282.38 C 569.12 287.41 574.00 290.71 579.45 292.32 C 577.43 289.25 575.76 285.87 575.34 282.17 C 583.69 285.17 588.29 294.56 597.10 296.87 C 601.10 298.06 606.31 297.49 608.64 293.60 C 611.30 289.73 608.27 282.71 603.05 284.15 C 599.99 285.14 599.98 288.61 599.67 291.25 C 592.05 289.17 586.94 282.66 580.59 278.38 C 571.00 271.75 560.74 264.91 548.86 263.61 C 540.02 262.63 530.60 262.36 522.46 266.52 M 504.39 280.58 C 502.10 284.63 506.62 287.87 506.47 291.91 C 506.60 297.26 506.55 302.62 506.42 307.98 C 506.49 310.83 504.49 313.19 504.34 315.99 C 504.75 318.56 505.85 320.94 506.72 323.38 C 505.19 323.40 503.65 323.42 502.13 323.44 C 501.94 327.70 504.68 330.90 507.65 333.55 C 520.95 332.80 534.48 335.02 547.57 331.84 C 557.22 330.86 567.00 332.44 576.61 331.04 C 581.59 329.69 587.50 329.25 591.05 325.05 C 593.49 321.90 595.02 316.47 591.55 313.49 C 589.13 311.45 586.32 309.32 583.00 309.41 C 573.18 308.76 563.83 312.75 554.05 312.60 C 549.38 312.52 544.70 312.77 540.05 312.37 C 532.90 311.68 526.83 306.53 519.45 307.26 C 518.95 309.56 518.44 311.85 517.99 314.16 C 517.57 314.23 516.74 314.39 516.33 314.46 C 514.41 312.18 512.22 309.85 511.65 306.82 C 511.07 303.98 512.87 301.46 513.55 298.81 C 512.27 295.60 509.72 293.06 508.51 289.81 C 507.18 286.64 507.55 283.13 507.49 279.78 C 506.71 279.98 505.16 280.38 504.39 280.58 M 416.08 303.16 C 416.42 306.42 418.80 308.99 421.76 310.20 C 428.01 312.70 434.78 313.32 441.42 313.96 C 441.00 315.15 440.42 316.28 439.93 317.45 C 443.67 317.48 447.35 318.15 451.02 318.85 C 450.05 316.31 449.78 311.77 446.06 312.00 C 437.93 311.42 430.25 308.43 422.87 305.19 C 420.69 304.24 418.42 303.53 416.08 303.16 M 433.17 308.18 C 437.07 309.54 441.07 310.83 445.27 310.51 C 444.46 308.04 443.36 305.38 440.88 304.17 C 439.69 304.42 438.53 304.79 437.38 305.13 C 436.45 304.32 435.47 303.46 434.58 302.66 C 433.80 304.40 433.43 306.29 433.17 308.18 M 396.25 347.32 C 396.10 347.95 395.81 349.22 395.66 349.85 C 396.24 351.00 397.08 352.19 396.71 353.56 C 391.84 355.62 385.40 356.18 381.25 352.32 C 381.93 351.77 383.28 350.65 383.95 350.09 C 383.88 343.14 372.78 346.27 373.78 352.06 C 374.40 355.26 377.12 357.62 380.13 358.57 C 385.25 360.17 390.73 359.99 396.00 359.46 C 400.06 358.96 404.65 356.44 405.23 352.01 C 406.07 347.49 399.31 344.15 396.25 347.32 M 391.83 361.11 C 393.10 362.03 394.41 362.93 395.75 363.77 C 397.76 362.75 399.81 361.82 401.90 360.97 C 401.40 362.73 400.82 364.46 400.24 366.21 C 400.82 366.16 402.00 366.07 402.59 366.02 C 401.77 367.52 401.04 369.08 400.35 370.65 C 402.44 373.97 401.50 378.29 400.20 381.74 C 401.29 382.99 403.01 384.04 403.00 385.91 C 403.31 390.17 402.88 394.50 403.92 398.70 C 405.55 397.82 406.87 395.51 408.91 395.90 C 413.87 398.80 416.99 404.16 422.19 406.71 C 427.89 407.95 432.56 403.15 435.89 399.18 C 432.80 396.00 429.42 393.07 426.75 389.51 C 423.92 385.79 422.61 381.09 419.30 377.71 C 413.43 371.30 406.84 365.59 400.72 359.42 C 397.78 360.11 394.83 360.76 391.83 361.11 M 383.21 361.08 C 383.18 361.76 383.12 363.13 383.09 363.81 C 386.72 365.54 390.60 366.79 394.66 366.89 C 394.71 366.15 394.81 364.68 394.86 363.94 C 391.16 362.35 387.25 361.25 383.21 361.08 M 396.16 365.23 C 396.15 365.94 396.12 367.36 396.11 368.07 C 397.99 366.37 400.20 364.75 400.71 362.09 C 399.13 363.06 397.63 364.12 396.16 365.23 M 382.38 369.45 C 386.36 370.98 390.64 371.85 394.92 371.90 C 394.87 371.25 394.79 369.95 394.75 369.30 C 390.93 367.73 387.15 365.62 382.95 365.37 C 380.33 364.83 380.75 368.66 382.38 369.45 M 398.92 367.45 C 397.45 369.21 395.82 370.91 395.61 373.33 C 397.37 372.15 399.02 370.80 400.57 369.35 C 400.03 368.71 399.48 368.07 398.92 367.45 M 383.34 374.63 C 386.88 376.78 391.37 376.97 395.43 376.78 C 394.39 372.58 389.45 372.06 385.90 371.41 C 384.00 370.76 381.08 372.99 383.34 374.63 M 395.49 378.35 C 398.50 377.30 400.55 374.70 400.71 371.45 C 398.58 373.43 395.88 375.21 395.49 378.35 M 383.76 376.72 C 383.84 382.49 391.26 382.76 395.41 381.57 C 393.22 377.20 388.02 376.99 383.76 376.72 M 395.80 382.60 C 398.10 381.42 400.31 379.78 400.79 377.03 C 398.49 378.22 396.26 379.87 395.80 382.60 M 385.23 385.83 C 383.27 385.40 381.20 384.03 379.26 385.20 C 378.31 389.56 383.94 388.68 386.63 389.66 C 385.44 391.44 384.23 393.21 383.00 394.96 C 385.88 398.94 386.12 404.57 382.38 408.11 C 380.87 407.01 379.34 405.95 377.79 404.93 C 377.50 405.74 376.93 407.38 376.64 408.19 C 377.86 411.40 381.59 412.01 384.42 413.14 C 383.23 414.58 382.00 415.97 380.74 417.34 C 382.30 417.69 383.91 417.91 385.41 418.52 C 386.57 420.34 387.41 422.35 388.43 424.26 C 390.04 422.60 391.07 420.54 391.72 418.35 C 393.44 418.00 395.18 417.68 396.93 417.39 C 395.76 415.98 393.28 414.94 393.41 412.93 C 396.71 411.75 401.45 410.76 401.05 406.25 C 399.96 405.94 398.88 405.64 397.79 405.35 C 397.38 406.06 396.58 407.49 396.17 408.21 C 394.48 407.10 392.63 405.90 392.17 403.78 C 391.03 400.64 392.99 397.68 394.48 395.07 C 392.85 393.08 391.55 390.83 390.97 388.31 C 393.26 388.55 395.55 388.88 397.87 388.79 C 400.26 385.33 394.43 385.08 392.22 384.88 C 390.45 383.75 388.59 382.78 386.70 381.90 C 386.21 383.21 385.72 384.52 385.23 385.83 M 529.61 387.35 C 529.01 398.21 538.76 404.91 543.11 413.78 C 545.20 420.50 544.83 427.78 544.65 434.74 C 541.74 439.50 535.65 438.12 530.99 438.99 C 526.65 439.29 524.17 443.66 523.76 447.58 C 526.29 446.85 528.68 445.75 530.99 444.48 C 532.55 445.54 534.03 447.02 536.00 447.24 C 538.00 447.06 539.46 445.52 541.03 444.45 C 543.33 447.92 548.52 448.13 550.78 444.52 C 553.42 446.22 556.36 447.61 559.59 447.20 C 561.72 442.54 560.28 437.69 559.38 432.96 C 560.08 426.74 566.44 423.32 568.23 417.50 C 565.14 417.16 561.20 417.72 559.42 414.51 C 557.13 411.20 559.94 407.70 561.89 405.05 C 558.98 403.00 556.07 400.93 553.51 398.45 C 550.29 395.39 547.39 391.82 543.33 389.82 C 539.12 387.61 534.25 387.49 529.61 387.35 M 561.74 406.12 C 560.87 408.25 559.97 410.37 559.05 412.49 C 560.90 415.53 564.26 415.91 567.54 415.78 C 568.23 416.53 568.94 417.29 569.65 418.05 C 567.13 422.14 563.96 425.78 561.40 429.84 C 559.37 432.93 561.34 436.70 561.68 440.01 C 565.66 438.99 569.20 436.75 573.22 435.88 C 575.46 435.41 577.59 434.57 579.62 433.53 C 578.88 427.06 581.34 419.03 575.95 414.02 C 571.79 410.58 567.37 406.58 561.74 406.12 Z" />
<path fill="#21514f" opacity="1.00" d=" M 494.47 280.51 C 497.01 279.45 499.41 278.10 501.99 277.14 C 497.45 282.32 490.13 282.83 483.77 283.81 C 485.14 285.36 487.77 286.34 487.93 288.67 C 482.78 290.12 477.32 289.59 472.21 288.24 C 473.40 289.21 474.33 290.37 475.01 291.72 C 470.14 291.69 465.33 290.54 461.11 288.07 C 458.24 286.90 454.51 284.07 451.72 286.81 C 450.00 287.73 450.49 290.26 451.94 291.21 C 453.36 292.70 455.20 291.01 456.55 290.33 C 455.75 289.00 454.96 287.67 454.18 286.34 C 455.53 287.31 457.98 287.80 457.35 290.01 C 457.30 293.51 452.36 293.72 450.58 291.44 C 447.82 288.55 451.67 283.42 455.22 284.55 C 461.08 286.00 465.95 290.32 472.21 290.52 C 471.13 288.53 469.99 286.59 468.89 284.62 C 471.51 285.87 474.01 287.67 476.99 287.93 C 480.07 288.23 483.19 288.10 486.29 288.08 C 484.59 286.08 482.75 284.19 480.88 282.35 C 485.43 282.05 490.16 282.25 494.47 280.51 Z" />
<path fill="#21514f" opacity="1.00" d=" M 483.00 304.35 C 483.47 302.07 483.84 299.78 484.27 297.50 C 484.47 298.22 484.87 299.67 485.07 300.39 C 485.79 300.22 487.22 299.87 487.94 299.70 L 485.56 300.67 C 487.88 301.98 490.17 303.55 492.87 304.01 C 492.78 304.83 492.61 306.49 492.52 307.32 C 490.80 305.74 489.44 303.82 487.72 302.26 C 486.67 302.07 485.63 301.89 484.59 301.72 C 484.15 303.61 483.55 305.47 482.87 307.29 C 481.73 305.90 480.63 304.46 479.54 303.04 C 478.62 304.61 477.73 306.20 476.87 307.81 C 476.33 307.26 475.27 306.16 474.73 305.61 C 474.47 307.34 474.22 309.10 473.96 310.84 C 471.91 309.32 469.87 307.79 467.85 306.25 C 466.71 307.79 465.63 309.39 464.24 310.72 C 461.09 308.65 458.04 305.81 458.13 301.73 C 459.35 304.79 461.49 307.27 464.10 309.24 C 465.33 307.55 466.54 305.84 467.70 304.10 C 469.48 305.54 471.29 306.94 473.15 308.27 C 473.01 305.76 472.83 303.25 472.61 300.75 C 474.13 302.52 475.65 304.28 477.20 306.04 C 477.41 303.92 477.61 301.80 477.79 299.68 C 479.53 301.22 481.23 302.83 483.00 304.35 Z" />
</g>
</svg>
